<?xml version="1.0" encoding="utf-8"?>
<!-- Generator: Adobe Illustrator 25.0.0, SVG Export Plug-In . SVG Version: 6.00 Build 0)  -->
<svg version="1.1" id="Layer_1" xmlns="http://www.w3.org/2000/svg" xmlns:xlink="http://www.w3.org/1999/xlink" x="0px" y="0px"
	 viewBox="0 0 1190 512" style="enable-background:new 0 0 1190 512;" xml:space="preserve">
<style type="text/css">
	.st0{fill:url(#SVGID_1_);}
	.st1{opacity:0.9;fill:#FF6600;enable-background:new    ;}
	.st2{fill:#002266;}
	.st3{opacity:0.9;}
	.st4{fill:none;stroke:#FFFFFF;stroke-width:4;}
	.st5{fill:#FFFFFF;}
</style>
<g>
	<g>
		
			<linearGradient id="SVGID_1_" gradientUnits="userSpaceOnUse" x1="-40.697" y1="676.482" x2="-39.8572" y2="675.6422" gradientTransform="matrix(448 0 0 -512 18359 346402.5938)">
			<stop  offset="0" style="stop-color:#003399"/>
			<stop  offset="1" style="stop-color:#002266"/>
		</linearGradient>
		<path class="st0" d="M299.4,61.5c112.5,0,188.1,26.9,188.1,26.9l-26.9,335.9c0,0-48.7,67.2-161.2,67.2s-161.2-67.2-161.2-67.2
			L111.3,88.4C111.3,88.4,186.8,61.5,299.4,61.5z"/>
		<path class="st1" d="M191.9,169v215h215V169H191.9z"/>
		<circle class="st2" cx="299.4" cy="276.5" r="80.6"/>
		<g class="st3">
			<circle class="st4" cx="299.4" cy="276.5" r="67.2"/>
			<circle class="st4" cx="299.4" cy="276.5" r="50.4"/>
			<circle class="st4" cx="299.4" cy="276.5" r="33.6"/>
			<line class="st4" x1="299.4" y1="195.9" x2="299.4" y2="357.1"/>
			<line class="st4" x1="218.8" y1="276.5" x2="380" y2="276.5"/>
		</g>
		<path class="st4" d="M43.4,20.5"/>
		<circle class="st5" cx="336.3" cy="229.5" r="3.4">
		
			<animate  accumulate="none" additive="replace" attributeName="opacity" calcMode="linear" dur="2s" fill="remove" repeatCount="indefinite" restart="always" values="1;0;1">
			</animate>
		</circle>
		<circle class="st5" cx="263.4" cy="300.5" r="4">
		
			<animate  accumulate="none" additive="replace" attributeName="opacity" calcMode="linear" dur="3s" fill="remove" repeatCount="indefinite" restart="always" values="0;1;0">
			</animate>
		</circle>
	</g>
	<g>
		<path class="st5" d="M732.6,127l-8.1,23.2H621.1c-27.6,0-41.4,13.8-41.4,41.4v129.4c0,27.5,13.8,41.2,41.4,41.2h100.2l-7.7,22.8
			h-92.8c-19.9,0-35.7-5.7-47.2-17.2c-11.6-11.5-17.4-27.1-17.4-46.9V191.6c0-19.9,5.8-35.7,17.4-47.2
			c11.6-11.6,27.3-17.4,47.2-17.4H732.6z M732.6,328.3l-8.1,23.6H621.1c-20.6,0-30.9-10.3-30.9-30.9V191.6
			c0-20.4,10.3-30.6,30.9-30.6h100.2l-7.7,22.8h-92.8c-3.2,0-5.6,0.2-7,0.7c-0.5,1.4-0.7,3.8-0.7,7v129.4c0,2.9,0.2,5.1,0.7,6.7
			c1.4,0.5,3.8,0.7,7,0.7H732.6z"/>
		<path class="st5" d="M923.8,127l-8.1,23.2H812.2c-27.6,0-41.4,13.8-41.4,41.4v129.4c0,27.5,13.8,41.2,41.4,41.2h100.2l-7.7,22.8
			h-92.8c-19.9,0-35.7-5.7-47.2-17.2c-11.6-11.5-17.4-27.1-17.4-46.9V191.6c0-19.9,5.8-35.7,17.4-47.2
			c11.6-11.6,27.3-17.4,47.2-17.4H923.8z M923.8,328.3l-8.1,23.6H812.2c-20.6,0-30.9-10.3-30.9-30.9V191.6
			c0-20.4,10.3-30.6,30.9-30.6h100.2l-7.7,22.8h-92.8c-3.2,0-5.6,0.2-7,0.7c-0.5,1.4-0.7,3.8-0.7,7v129.4c0,2.9,0.2,5.1,0.7,6.7
			c1.4,0.5,3.8,0.7,7,0.7H923.8z"/>
		<path class="st5" d="M1137.1,207.4h-22.8v-57.2h-97c-15.1,0-28.1,5.5-39,16.4c-10.9,10.9-16.3,24-16.3,39.4
			c0,15.2,5.4,28.2,16.2,39c10.8,10.8,23.8,16.2,39,16.2h51.3c12.4,0,22.9,4.4,31.8,13.2s13.2,19.4,13.2,31.8
			c0,12.4-4.4,23-13.2,31.9c-8.8,8.9-19.4,13.4-31.8,13.4h-88.7v-48.8h22.8v25.5h65.5c6,0,11.1-2.2,15.4-6.7
			c4.3-4.5,6.4-9.7,6.4-15.7c0-6-2.1-11.1-6.4-15.4c-4.3-4.3-9.4-6.4-15.4-6.4h-51.3c-21.6,0-40.1-7.7-55.4-23
			c-15.4-15.4-23-33.8-23-55.4c0-21.7,7.7-40.2,23-55.6c15.4-15.4,33.8-23,55.4-23h120.2V207.4z M1146.6,305.9
			c0,21.7-7.7,40.3-23,55.8c-15.4,15.5-33.8,23.3-55.4,23.3H945.8v-82.2h23.6v59h99.1c15.2,0,28.2-5.5,39-16.4
			c10.8-10.9,16.2-24,16.2-39.2c0-15.2-5.4-28.2-16.2-39c-10.8-10.8-23.8-16.2-39-16.2h-51.3c-12.4,0-22.9-4.4-31.7-13.2
			c-8.8-8.8-13.1-19.4-13.1-31.8c0-12.5,4.4-23.1,13.1-31.8c8.8-8.8,19.3-13.1,31.7-13.1h86.7v46.4h-23.6v-23.6h-63.5
			c-5.9,0-10.9,2.1-15.2,6.4c-4.3,4.3-6.4,9.4-6.4,15.4c0,5.9,2.1,11,6.4,15.3c4.3,4.3,9.3,6.4,15.2,6.4h51.3
			c21.7,0,40.2,7.7,55.5,23C1139,265.7,1146.6,284.2,1146.6,305.9z"/>
	</g>
</g>
</svg>
