<?xml version="1.0" encoding="utf-8"?>
<!-- Generator: Adobe Illustrator 25.0.0, SVG Export Plug-In . SVG Version: 6.00 Build 0)  -->
<svg version="1.1" id="Layer_1" xmlns="http://www.w3.org/2000/svg" xmlns:xlink="http://www.w3.org/1999/xlink" x="0px" y="0px"
	 viewBox="0 0 1190 512" style="enable-background:new 0 0 1190 512;" xml:space="preserve">
<style type="text/css">
	.st0{fill:url(#SVGID_1_);}
	.st1{opacity:0.9;fill:#FF6600;enable-background:new    ;}
	.st2{opacity:0.3;}
	.st3{fill:none;stroke:#FFFFFF;stroke-width:2;}
	.st4{opacity:0.9;fill:none;stroke:#FFFFFF;stroke-width:8;stroke-linecap:round;enable-background:new    ;}
	.st5{fill:#FFFFFF;}
</style>
<g>
	<g>
		
			<linearGradient id="SVGID_1_" gradientUnits="userSpaceOnUse" x1="-40.8307" y1="676.4777" x2="-40.0728" y2="675.7198" gradientTransform="matrix(448 0 0 -512 18359 346402.5938)">
			<stop  offset="0" style="stop-color:#003399"/>
			<stop  offset="1" style="stop-color:#002266"/>
		</linearGradient>
		<path class="st0" d="M222.7,62c101.6,0,169.8,24.3,169.8,24.3l-24.3,303.2c0,0-44,60.6-145.5,60.6S77.1,389.4,77.1,389.4
			L52.9,86.2C52.9,86.2,121.1,62,222.7,62z"/>
		<path class="st1" d="M125.6,159v194h194V159H125.6z"/>
		<g class="st2">
			<line class="st3" x1="125.6" y1="207.5" x2="319.7" y2="207.5"/>
			<line class="st3" x1="125.6" y1="256" x2="319.7" y2="256"/>
			<line class="st3" x1="125.6" y1="304.5" x2="319.7" y2="304.5"/>
			<line class="st3" x1="174.2" y1="159" x2="174.2" y2="353"/>
			<line class="st3" x1="222.7" y1="159" x2="222.7" y2="353"/>
			<line class="st3" x1="271.2" y1="159" x2="271.2" y2="353"/>
		</g>
		<path class="st4" d="M127,319.8c0,0,39.9-39.9,95.7-39.9s95.7-39.9,95.7-39.9		">
<animate  accumulate="none" additive="replace" attributeName="stroke-dasharray" calcMode="linear" dur="4s" fill="remove" repeatCount="indefinite" restart="always" values="0,1000;1000,0">
				</animate>
		</path>
		<g>
			<circle class="st5" cx="127" cy="319.8" r="8"/>
			<circle class="st5" cx="222.7" cy="279.9" r="8"/>
			<circle class="st5" cx="318.4" cy="240" r="8"/>
		</g>
	</g>
	<g>
		<path class="st5" d="M645.2,380.8h-22.8V187.4c0-27.6-13.7-41.4-41.2-41.4H463.9v123.1h-56.3v-23.2h32.7V122.8h140.5
			c19.8,0,35.5,5.8,47,17.4c11.6,11.6,17.4,27.3,17.4,47.2V380.8z M463.9,380.8h-23.6v-78.1h-32.7v-22.8h56.3V380.8z M612.1,269.1
			H474.3V156.8h106.9c20.6,0,30.9,10.2,30.9,30.6V269.1z M612.1,380.8h-23.6v-78.1h-91.4v78.1h-22.8V279.9h137.8V380.8z
			 M588.5,245.9v-59.2c0-2.8-0.3-4.9-0.9-6.3c-1.4-0.5-3.5-0.7-6.1-0.7h-84.4v66.2H588.5z"/>
		<path class="st5" d="M709.5,380.8H686V179.6h-33.5l7.7-22.8h49.3V380.8z M905.3,380.8h-22.8v-28.1c0-14.6-4.1-28.1-12.4-40.4
			c-8.3-12.3-19.3-21.1-32.9-26.5c13.7-5.5,24.6-14.5,32.9-26.8c8.3-12.4,12.4-25.9,12.4-40.7c0-19.9-7-36.9-21.1-51.1
			c-14.1-14.2-31.1-21.2-51-21.2H663.5l7.7-23.2h138.5c26.4,0,48.9,9.3,67.6,28c18.6,18.7,28,41.2,28,67.6c0,26-9.2,48.4-27.7,67.1
			c18.5,18.6,27.7,40.9,27.7,66.9V380.8z M872.2,218.3c0,17-6.1,31.6-18.2,43.7c-12.1,12.1-26.7,18.2-43.7,18.2H720V156.8h90.3
			c17,0,31.6,6,43.7,18C866.1,186.8,872.2,201.3,872.2,218.3z M872.2,380.8h-23.6v-28.4c0-10.6-3.8-19.6-11.4-27.3
			c-7.6-7.6-16.8-11.4-27.4-11.4h-66.9v67.1H720v-90h90.3c17,0,31.6,6.1,43.7,18.2c12.1,12.1,18.2,26.7,18.2,43.7V380.8z
			 M848.6,218.3c0-10.7-3.8-19.8-11.4-27.3c-7.6-7.6-16.8-11.3-27.4-11.3h-66.9V257h66.9c10.7,0,19.8-3.8,27.4-11.3
			C844.8,238.1,848.6,229,848.6,218.3z"/>
		<path class="st5" d="M1127.6,203.2h-22.8V146h-97c-15.1,0-28.1,5.5-39,16.4c-10.9,10.9-16.3,24-16.3,39.4c0,15.2,5.4,28.2,16.2,39
			c10.8,10.8,23.8,16.2,39,16.2h51.3c12.4,0,22.9,4.4,31.8,13.2s13.2,19.4,13.2,31.8c0,12.4-4.4,23-13.2,31.9
			c-8.8,8.9-19.4,13.4-31.8,13.4h-88.7v-48.8h22.8v25.5h65.5c6,0,11.1-2.2,15.4-6.7c4.3-4.5,6.4-9.7,6.4-15.7c0-6-2.1-11.1-6.4-15.4
			c-4.3-4.3-9.4-6.4-15.4-6.4h-51.3c-21.6,0-40.1-7.7-55.4-23c-15.4-15.4-23-33.8-23-55.4c0-21.7,7.7-40.2,23-55.6
			c15.4-15.4,33.8-23,55.4-23h120.2V203.2z M1137.1,301.7c0,21.7-7.7,40.3-23,55.8c-15.4,15.5-33.8,23.3-55.4,23.3H936.3v-82.2h23.6
			v59h99.1c15.2,0,28.2-5.5,39-16.4c10.8-10.9,16.2-24,16.2-39.2c0-15.2-5.4-28.2-16.2-39c-10.8-10.8-23.8-16.2-39-16.2h-51.3
			c-12.4,0-22.9-4.4-31.7-13.2c-8.8-8.8-13.1-19.4-13.1-31.8c0-12.5,4.4-23.1,13.1-31.8c8.8-8.8,19.3-13.1,31.7-13.1h86.7v46.4
			h-23.6v-23.6h-63.5c-5.9,0-10.9,2.1-15.2,6.4c-4.3,4.3-6.4,9.4-6.4,15.4c0,5.9,2.1,11,6.4,15.3c4.3,4.3,9.3,6.4,15.2,6.4h51.3
			c21.7,0,40.2,7.7,55.5,23C1129.5,261.5,1137.1,280,1137.1,301.7z"/>
	</g>
</g>
</svg>
