<?xml version="1.0" encoding="utf-8"?>
<!-- Generator: Adobe Illustrator 25.0.0, SVG Export Plug-In . SVG Version: 6.00 Build 0)  -->
<svg version="1.1" id="Layer_1" xmlns="http://www.w3.org/2000/svg" xmlns:xlink="http://www.w3.org/1999/xlink" x="0px" y="0px"
	 viewBox="0 0 1190 512" style="enable-background:new 0 0 1190 512;" xml:space="preserve">
<style type="text/css">
	.st0{fill:url(#SVGID_1_);}
	.st1{opacity:0.9;fill:#FF6600;enable-background:new    ;}
	.st2{fill:#FFFFFF;}
	.st3{fill:#FF6600;}
	.st4{opacity:0.3;fill:#FFFFFF;enable-background:new    ;}
	.st5{opacity:0.9;}
	.st6{opacity:0.7;}
	.st7{fill:none;stroke:#FFFFFF;stroke-width:4;}
	.st8{fill:#0D2449;}
</style>
<g>
	<g>
		
			<linearGradient id="SVGID_1_" gradientUnits="userSpaceOnUse" x1="-40.9064" y1="676.522" x2="-40.0666" y2="675.6822" gradientTransform="matrix(448 0 0 -512 18359 346402.5938)">
			<stop  offset="0" style="stop-color:#003399"/>
			<stop  offset="1" style="stop-color:#002266"/>
		</linearGradient>
		<path class="st0" d="M205.6,41c112.5,0,188.1,26.9,188.1,26.9l-26.9,335.9c0,0-48.7,67.2-161.2,67.2S44.3,403.8,44.3,403.8
			L17.4,67.9C17.4,67.9,93,41,205.6,41z"/>
		<path class="st1" d="M98.1,242.6l40.3-53.8h134.4l40.3,53.8v67.2h-215V242.6z"/>
		<g>
			<circle class="st2" cx="151.8" cy="309.8" r="26.9"/>
			<circle class="st2" cx="259.3" cy="309.8" r="26.9"/>
			<circle class="st3" cx="151.8" cy="309.8" r="13.4"/>
			<circle class="st3" cx="259.3" cy="309.8" r="13.4"/>
		</g>
		<path class="st4" d="M146.8,197.2h117.6l33.6,45.4H113.2L146.8,197.2z"/>
		<g class="st5">
			<path class="st2" d="M114.9,242.6h6.7c3.7,0,6.7,3,6.7,6.7l0,0c0,3.7-3,6.7-6.7,6.7h-6.7c-3.7,0-6.7-3-6.7-6.7l0,0
				C108.1,245.6,111.1,242.6,114.9,242.6z"/>
			<path class="st2" d="M289.5,242.6h6.7c3.7,0,6.7,3,6.7,6.7l0,0c0,3.7-3,6.7-6.7,6.7h-6.7c-3.7,0-6.7-3-6.7-6.7l0,0
				C282.8,245.6,285.8,242.6,289.5,242.6z"/>
		</g>
		<g class="st6">
			<path class="st7" d="M205.6,175.4c16.8,0,30.2,13.4,30.2,30.2			">
<animate  accumulate="none" additive="replace" attributeName="opacity" calcMode="linear" dur="2s" fill="remove" repeatCount="indefinite" restart="always" values="0.7;0.2;0.7">
					</animate>
			</path>
			<path class="st7" d="M205.6,158.6c26,0,47,21,47,47			">
<animate  accumulate="none" additive="replace" attributeName="opacity" begin="0.5s" calcMode="linear" dur="2s" fill="remove" repeatCount="indefinite" restart="always" values="0.7;0.2;0.7">
					</animate>
			</path>
		</g>
	</g>
	<g>
		<path class="st8" d="M662.4,137l-95.1,238h-48.5l-94.9-238h23.4l91.6,230.2h8.9L639.7,137H662.4z M629.4,137l-86.1,215.2
			L457.5,137h22.7L543,294.5L606.1,137H629.4z"/>
		<path class="st8" d="M958.8,374.5h-21V196.5c0-25.4-12.5-38.1-37.6-38.1H690.8v216.1h-21.7V137h230.7c18.2,0,32.6,5.3,43.1,16
			c10.5,10.7,15.8,25.1,15.8,43.5V374.5z M809.6,374.5h-21.7V196.5c0-3-0.2-5.1-0.7-6.5c-1.3-0.4-3.1-0.7-5.5-0.7h-60.3v185.2h-21
			V168.3h109.1V374.5z M928.3,374.5h-21.7V196.5c0-3-0.2-5.1-0.7-6.5c-1.3-0.4-3.4-0.7-6.1-0.7h-59.6v185.2h-21V168.3h81
			c18.8,0,28.2,9.4,28.2,28.2V374.5z"/>
		<path class="st8" d="M1163.8,211h-21v-52.7h-89.3c-13.9,0-25.9,5-35.9,15.1c-10,10-15,22.1-15,36.3c0,14,5,26,14.9,35.9
			c9.9,9.9,21.9,14.9,35.9,14.9h47.2c11.4,0,21.1,4.1,29.2,12.2c8.1,8.1,12.2,17.9,12.2,29.2c0,11.4-4.1,21.2-12.2,29.4
			c-8.1,8.2-17.9,12.3-29.2,12.3H1019v-44.9h21v23.5h60.3c5.5,0,10.2-2.1,14.2-6.2c3.9-4.1,5.9-9,5.9-14.5c0-5.5-2-10.2-5.9-14.2
			c-3.9-3.9-8.6-5.9-14.2-5.9h-47.2c-19.9,0-36.9-7.1-51-21.2c-14.1-14.1-21.2-31.1-21.2-51c0-20,7.1-37,21.2-51.2
			c14.1-14.1,31.1-21.2,51-21.2h110.6V211z M1172.6,301.7c0,20-7.1,37.1-21.2,51.4c-14.1,14.3-31.1,21.4-51,21.4H987.7v-75.7h21.7
			v54.3h91.3c14,0,26-5,35.9-15.1c9.9-10,14.9-22.1,14.9-36.1c0-14-5-26-14.9-35.9c-9.9-9.9-21.9-14.9-35.9-14.9h-47.2
			c-11.4,0-21.1-4.1-29.2-12.2c-8.1-8.1-12.1-17.9-12.1-29.2c0-11.5,4-21.3,12.1-29.3c8.1-8.1,17.8-12.1,29.2-12.1h79.8V211h-21.7
			v-21.7h-58.5c-5.4,0-10.1,2-14,5.9c-3.9,3.9-5.9,8.7-5.9,14.2c0,5.4,2,10.1,5.9,14.1c3.9,3.9,8.6,5.9,14,5.9h47.2
			c20,0,37,7.1,51.1,21.2C1165.5,264.7,1172.6,281.8,1172.6,301.7z"/>
	</g>
</g>
</svg>
